# xmcd
#
# Track frame offsets:
#	150
#	16283
#	36170
#	57777
#	75859
#	87558
#	97012
#	112089
#	127332
#	138824
#
# Disc length: 2001 seconds
#
# Revision: 0
# Processed by: cddbd v1.5.2PL0 Copyright (c) Steve Scherf et al.
# Submitted via: dBpowerAMP V4.0
#
DISCID=8007cf0a
DTITLE=Willie Nelson - Yours Always
DYEAR=1992
DGENRE=Country
TTITLE0=Always on my mind
TTITLE1=I never go around mirrors
TTITLE2=Why are you pickin' on me
TTITLE3=Help me make it through the night
TTITLE4=Angel flying too close to the ground
TTITLE5=Mona Lisa
TTITLE6=I'm not trying to forget you
TTITLE7=If you've got the money I've got the time
TTITLE8=It's not supposed to be the way
TTITLE9=City of New Orleans
EXTD=
EXTT0=
EXTT1=
EXTT2=
EXTT3=
EXTT4=
EXTT5=
EXTT6=
EXTT7=
EXTT8=
EXTT9=
PLAYORDER=
